/* XPM */
static char *_fbebefdcc0f4752caaf228d827bb7fawL7UbZ3MuaTbnp02[] = {
/* columns rows colors chars-per-pixel */
"32 32 8 1 ",
"  c None",
". c #141B1B",
"X c #345A52",
"o c #D14B34",
"O c #56864C",
"+ c #A8A129",
"@ c #EF914F",
"# c #F2EAF1",
/* pixels */
"         .......                ",
"         .......                ",
"     ....OOOOOOO.........       ",
"     ....OOOOOOO.........       ",
"  ...OO..+++++OO+++++++++..     ",
"  ...OO..+++++OO+++++++++..     ",
"..OOO..OOOO++++++++++++++++...  ",
"..OOO..OOOO++++++++++++++++...  ",
"..OOO..OOOO++++++++++++++++...  ",
"..OOO++++OO++++++++++++++++OOO..",
"..OOO++++OO++++++++++++++++OOO..",
"..OOO++++++++++++++++++++++OOO..",
"..OOO++++++++++++++++++++++OOO..",
"..OOOOO++++++++++++++++++OO...  ",
"..OOOOO++++++++++++++++++OO...  ",
"..OOOOOOOOOOOOOOXXooo....oo...  ",
"..OOOOOOOOOOOOOOXXooo....oo...  ",
"..OOOOOOOOOOOOOOXXooo##..oo+++..",
"..OOOOOOOOOOOOOOXXooo##..oo+++..",
"..OOOOOOOOOOOOOOOOOOO+++++++++..",
"..OOOOOOOOOOOOOOOOOOO+++++++++..",
"  ...OOOOOOOOOOOOOOOOOOOOOO...  ",
"  ...OOOOOOOOOOOOOOOOOOOOOO...  ",
"     ..XXXXXXXXXXXXXXXXXX..     ",
"     ..XXXXXXXXXXXXXXXXXX..     ",
"     ..XXXXXXXXXXXXXXXXXX..     ",
"     ..OO..ooooo..OOOXX..       ",
"     ..OO..ooooo..OOOXX..       ",
"     ..XX..@@@@@..XXXXX..       ",
"     ..XX..@@@@@..XXXXX..       ",
"       ..XX.......XXX..         ",
"       ..XX.......XXX..         "
};
