/* XPM */
static char *b8443bf1fe734d0887f1b837c823b13bAtonbGrWCciNapYF[] = {
/* columns rows colors chars-per-pixel */
"32 32 8 1 ",
"  c None",
". c #141B1B",
"X c #345A52",
"o c #D14B34",
"O c #56864C",
"+ c #A8A129",
"@ c #EF914F",
"# c #F2EAF1",
/* pixels */
"                       .......  ",
"                       .......  ",
"      .................OOOOO..  ",
"      .................OOOOO..  ",
"    ..+++++++++++++++++OOOOO....",
"    ..+++++++++++++++++OOOOO....",
"  ..+++++++++++++++++++OOO..OO..",
"  ..+++++++++++++++++++OOO..OO..",
"..OO++++++++++++++++++++++OOOO..",
"..OO++++++++++++++++++++++OOOO..",
"..OO++++++++++++++++++++++......",
"..OO++++++++++++++++++++++......",
"..OO++++++++++++++++++++++......",
"..OOOO+++++++++++++++++OOOOO..  ",
"..OOOO+++++++++++++++++OOOOO..  ",
"..OOXXooo....oooo....ooXXXOO..  ",
"..OOXXooo....oooo....ooXXXOO..  ",
"..OOXX@@@##..@@@@..##@@XXXOO..  ",
"..OOXX@@@##..@@@@..##@@XXXOO..  ",
"..OOOO+++++++++++++++++OOOOO..  ",
"..OOOO+++++++++++++++++OOOOO..  ",
"  ..OOOOOOOOOOOOOOOOOOOOOO..    ",
"  ..OOOOOOOOOOOOOOOOOOOOOO..    ",
"  ....XXXXXXXXXXXXXXXXX.....    ",
"  ....XXXXXXXXXXXXXXXXX.....    ",
"..ooooOOOXXOOOOOOOOXXOOooooo..  ",
"..ooooOOOXXOOOOOOOOXXOOooooo..  ",
"..@@@@XXXXXXX....XXXXXX@@@@@..  ",
"..@@@@XXXXXXX....XXXXXX@@@@@..  ",
"..@@@@XXXXXXX....XXXXXX@@@@@..  ",
"  ....XXXXXXX....XXXXXX.....    ",
"  ....XXXXXXX....XXXXXX.....    "
};
