/* XPM */
static char *f8a7dca6e6eb49f3a8a49a456698f12deXy0z0Y9xzmvfFGb[] = {
/* columns rows colors chars-per-pixel */
"32 32 2 1 ",
"  c #BD7959",
". c #D3865F",
/* pixels */
"........                      ..",
"........                      ..",
"            ..........          ",
"            ..........          ",
"        ........    ............",
"        ........    ............",
"................................",
"................................",
"....................    ........",
"....................    ........",
"................................",
"................................",
"..            ..................",
"..            ..................",
"                    ........    ",
"                    ........    ",
"..............                  ",
"..............                  ",
"................................",
"................................",
"......................      ....",
"......................      ....",
"......      ....................",
"......      ....................",
"..              ..  ......    ..",
"..              ..  ......    ..",
"      ..........................",
"      ..........................",
"................................",
"................................",
"..............          ........",
"..............          ........"
};
