/* XPM */
static char *_a788116eed24f8adb02282f5f04804crK5kfUwBWeJQp1ld[] = {
/* columns rows colors chars-per-pixel */
"32 32 6 1 ",
"  c None",
". c #141B1B",
"X c #543C52",
"o c #BD7959",
"O c #D2B37D",
"+ c #F2EAF1",
/* pixels */
"                                ",
"                                ",
"                                ",
"                                ",
"                                ",
"                                ",
"                                ",
"                                ",
"        ........                ",
"        ........                ",
"      ..++++OOOO......  ....    ",
"      ..++++OOOO......  ....    ",
"    ..OO++OOOOOOoo..OO..OO..    ",
"    ..OO++OOOOOOoo..OO..OO..    ",
"    ..OOooXXXXooooooooXXOO..    ",
"    ..OOooXXXXooooooooXXOO..    ",
"    ..OOooXXXXOOoooooooooo..    ",
"    ..OOooXXXXOOoooooooooo..    ",
"    ..ooooooOOOOoo..........    ",
"    ..ooooooOOOOoo..........    ",
"      ..oooooooo..              ",
"      ..oooooooo..              ",
"        ........                ",
"        ........                ",
"                                ",
"                                ",
"                                ",
"                                ",
"                                ",
"                                ",
"                                ",
"                                "
};
