/* XPM */
static char *e2ad29f9dae5443cdd6ab61ddb29af6eaDsRI3IZlg48lE5a[] = {
/* columns rows colors chars-per-pixel */
"32 32 4 1 ",
"  c None",
". c #141B1B",
"X c #74A334",
"o c #ADBC3A",
/* pixels */
"                                ",
"                                ",
"                                ",
"      ....  ....      ....      ",
"      ....  ....      ....      ",
"    ..oo..  ..XX..  ..oo..  ....",
"    ..oo..  ..XX..  ..oo..  ....",
"  ..XXoo....XXXX....XXoo....XX..",
"  ..XXoo....XXXX....XXoo....XX..",
"  ..XXoooo..XXXXXXooXXXX..XXXX..",
"  ..XXoooo..XXXXXXooXXXX..XXXX..",
"......ooooXXXXooooXXXXooXXXXXX..",
"......ooooXXXXooooXXXXooXXXXXX..",
"..XXXX..XXXXXXooooXXooooXXXXXX..",
"..XXXX..XXXXXXooooXXooooXXXXXX..",
"..XXXXXXooooXXooooXXooooooXX..  ",
"..XXXXXXooooXXooooXXooooooXX..  ",
"  ..ooXXooooXXXXooooooooooXXoo..",
"  ..ooXXooooXXXXooooooooooXXoo..",
"  XXooooooooooooooooooooooooooXX",
"  XXooooooooooooooooooooooooooXX",
"  XXooooooooooooooooooooooooooXX",
"  XXooooooooooooooooooooooooooXX",
"  oooooooooooooooooooooooooooo  ",
"  oooooooooooooooooooooooooooo  ",
"    oooooooooooooooooooooooo    ",
"    oooooooooooooooooooooooo    ",
"        oooooooooooooooo        ",
"        oooooooooooooooo        ",
"                                ",
"                                ",
"                                "
};
