/* XPM */
static char *_e898fd501914e6af2ff71dd3d458ff0d1h9IA1a3spQMbwg[] = {
/* columns rows colors chars-per-pixel */
"32 32 6 1 ",
"  c None",
". c #141B1B",
"X c #345A52",
"o c #D14B34",
"O c #56864C",
"+ c #A8A129",
/* pixels */
"  .......                       ",
"  .......                       ",
"  ..+++++.................      ",
"  ..+++++.................      ",
"....++OOOOOOO+++++++++++++..    ",
"....++OOOOOOO+++++++++++++..    ",
"..++OOOOO++++OO+++++++++++++..  ",
"..++OOOOO++++OO+++++++++++++..  ",
"..++OOOOO++++OO+++++++++++++..  ",
"..++++OOO++++OO+++++++++++++OO..",
"..++++OOO++++OO+++++++++++++OO..",
"......OOOOOOO+++++++++++++++OO..",
"......OOOOOOO+++++++++++++++OO..",
"  ..OOOOO+++++++++++++++++OOOO..",
"  ..OOOOO+++++++++++++++++OOOO..",
"  ..OOOOOOOOOOOOOOOOOOOOOOOOOO..",
"  ..OOOOOOOOOOOOOOOOOOOOOOOOOO..",
"  ..OOOOOOOOOOOOOOOOOOOOOOOOOO..",
"  ..OOOOOOOOOOOOOOOOOOOOOOOOOO..",
"  ..OOOOOOOOOOOOOOOOOOOOOOOOOO..",
"  ..OOOOOOOOOOOOOOOOOOOOOOOOOO..",
"    ..OOOOOOOOOOOOOOOOOOOOOO..  ",
"    ..OOOOOOOOOOOOOOOOOOOOOO..  ",
"    .....XXXXXXXXXXXXXXXXX....  ",
"    .....XXXXXXXXXXXXXXXXX....  ",
"    .....XXXXXXXXXXXXXXXXX....  ",
"  ..oooooOOXXOOOOOOOOXXOOOoooo..",
"  ..oooooOOXXOOOOOOOOXXOOOoooo..",
"  ..oooooXXXXXXXXXXXXXXXXXoooo..",
"  ..oooooXXXXXXXXXXXXXXXXXoooo..",
"    .....XXXXXX....XXXXXXX....  ",
"    .....XXXXXX....XXXXXXX....  "
};
