/* XPM */
static char *f7360fb53f094d8291e854285f81da49QgmjAIZDCLRSKldc[] = {
/* columns rows colors chars-per-pixel */
"32 32 8 1 ",
"  c None",
". c #141B1B",
"X c #345A52",
"o c #D14B34",
"O c #56864C",
"+ c #A8A129",
"@ c #EF914F",
"# c #F2EAF1",
/* pixels */
"                .......         ",
"                .......         ",
"       .........OOOOOOO....     ",
"       .........OOOOOOO....     ",
"     ..+++++++++OO+++++..OO...  ",
"     ..+++++++++OO+++++..OO...  ",
"  ...++++++++++++++++OOOO..OOO..",
"  ...++++++++++++++++OOOO..OOO..",
"  ...++++++++++++++++OOOO..OOO..",
"..OOO++++++++++++++++OO++++OOO..",
"..OOO++++++++++++++++OO++++OOO..",
"..OOO++++++++++++++++++++++OOO..",
"..OOO++++++++++++++++++++++OOO..",
"  ...OO++++++++++++++++++OOOOO..",
"  ...OO++++++++++++++++++OOOOO..",
"  ...oo....oooXXOOOOOOOOOOOOOO..",
"  ...oo....oooXXOOOOOOOOOOOOOO..",
"..+++oo..##oooXXOOOOOOOOOOOOOO..",
"..+++oo..##oooXXOOOOOOOOOOOOOO..",
"..+++++++++OOOOOOOOOOOOOOOOOOO..",
"..+++++++++OOOOOOOOOOOOOOOOOOO..",
"  ...OOOOOOOOOOOOOOOOOOOOOO...  ",
"  ...OOOOOOOOOOOOOOOOOOOOOO...  ",
"     ..XXXXXXXXXXXXXXXXXX..     ",
"     ..XXXXXXXXXXXXXXXXXX..     ",
"     ..XXXXXXXXXXXXXXXXXX..     ",
"       ..XXOOO..ooooo..OO..     ",
"       ..XXOOO..ooooo..OO..     ",
"       ..XXXXX..@@@@@..XX..     ",
"       ..XXXXX..@@@@@..XX..     ",
"         ..XXX.......XX..       ",
"         ..XXX.......XX..       "
};
