/* XPM */
static char *_da7d1b2c1b04440986c5269b6e0b94994xVJ49LsydWrn9U[] = {
/* columns rows colors chars-per-pixel */
"32 32 5 1 ",
"  c None",
". c #141B1B",
"X c #5F7160",
"o c #778570",
"O c #8D977F",
/* pixels */
"  oooooooooooooooooooooooooooo  ",
"  oooooooooooooooooooooooooooo  ",
"..oooXXXXXXXXXXXXXXXXXXXXXXooo..",
"..oooXXXXXXXXXXXXXXXXXXXXXXooo..",
"..oooXXXXXXXXXXXXXXXXXXXXXXooo..",
"..XXXooOOOOoooOOoooooooooooXXX..",
"..XXXooOOOOoooOOoooooooooooXXX..",
"..XXXooOOOOoooOOooOOOOOOOOOooo..",
"..XXXooOOOOoooOOooOOOOOOOOOooo..",
"..XXXooOOOOo........OOOOOOOooo..",
"..XXXooOOOOO........OXXXXXXooo..",
"..XXXooOOO............XXXXXooo..",
"..XXXooOOO............OOOXXooo..",
"..XXXooOOO............OOOXXooo..",
"..XXXooOOO............OOOXXooo..",
"..XXXooOOOOO........OOOOOXXooo..",
"..XXXooOOOOO........OOOOOXXooo..",
"..XXXooOOOOOOO....OOOOOOOXXooo..",
"..XXXooOOOOOOO....OOOOOOOXXooo..",
"..XXXooOOOOO........OOOOOXXooo..",
"..XXXooOOOOO........OXXXXXXooo..",
"..XXXooOOOOO........OXXXXXXooo..",
"..XXXooOOooO........OOOOOOOooo..",
"..XXXooOOooOOOOOooOOOOOOOOOooo..",
"..XXXooOOooOOOOOooOOOOOOOOOooo..",
"..XXXooOOooOOOOOoooooooooooooo..",
"..XXXooOOooOOOOOoooooooooooooo..",
"..XXXooOOooOOOOOooOOOOOOOOOooo..",
"..XXXooOOooOOOOOooOOOOOOOOOooo..",
"..XXXooOOooOOOOOooOOOOOOOOOooo..",
"  ............................  ",
"  ............................  "
};
