/* XPM */
static char *_3a7e368071646f4986898c2565944514GlKfoAtwUGHK3Zk[] = {
/* columns rows colors chars-per-pixel */
"32 32 5 1 ",
"  c None",
". c #141B1B",
"X c #5F7160",
"o c #778570",
"O c #8D977F",
/* pixels */
"  oooooooooooooooooooooooooooo  ",
"  oooooooooooooooooooooooooooo  ",
"oooooooooooooooooooooooooooooooo",
"oooooooooooooooooooooooooooooooo",
"oooooooooooooooooooooooooooooooo",
"oo............................oo",
"oo............................oo",
"..OOOOOOO.......................",
"..OOOOOOO.......................",
"..OOOOOOO.......................",
"..OOOOOOO.......................",
"..OOOOOOO.......................",
"..OOOOOOOXXooooooo..............",
"..OOOOOOOXXooooooo..............",
"..OOOOOOOXXooooooo..............",
"..OOOOOOOXXooooooo..............",
"..OOOOOOOXXooooooo..............",
"..OOOOOOOXXooooooo..............",
"..OOOOOOOXXooooooo..............",
"..OOOOOOOXXooooooo..............",
"..OOOOOOOXXoooooooXXXXXXX.......",
"..OOOOOOOXXoooooooXXXXXXX.......",
"..OOOOOOOXXoooooooXXXXXXX.......",
"..OOOOOOOXXoooooooXXXXXXX.......",
"..OOOOOOOXXoooooooXXXXXXX.......",
"..OOOOOOOXXoooooooXXXXXXX.......",
"..OOOOOOOXXoooooooXXXXXXX.......",
"..XXXXXXXXXoooooooXXXXXXX.......",
"..XXXXXXXXXoooooooXXXXXXX.......",
"..XXXXXXXXXoooooooXXXXXXX.......",
"  ............................  ",
"  ............................  "
};
